<svg xmlns="http://www.w3.org/2000/svg" viewBox="0 0 512 512">
  <defs>
    <linearGradient id="bg" x1="0%" y1="0%" x2="100%" y2="100%">
      <stop offset="0%" stop-color="#0f172a" />
      <stop offset="100%" stop-color="#1e3a8a" />
    </linearGradient>
    <linearGradient id="ring" x1="0%" y1="0%" x2="100%" y2="100%">
      <stop offset="0%" stop-color="#38bdf8" />
      <stop offset="100%" stop-color="#22d3ee" />
    </linearGradient>
  </defs>
  <rect width="512" height="512" rx="112" fill="url(#bg)" />
  <path
    d="M108 256c0-81.7 66.3-148 148-148 56.9 0 106.2 32.2 131 79.4l-43 20.6C328 176 294.3 156 256 156c-55.2 0-100 44.8-100 100s44.8 100 100 100c38.3 0 72-20 88-52l43 20.6C362.2 371.8 312.9 404 256 404c-81.7 0-148-66.3-148-148Z"
    fill="url(#ring)"
  />
  <path
    d="M306 202.5 267 183v146l39-19.5V202.5Z"
    fill="#e0f2fe"
  />
</svg>

